<?xml version="1.0" standalone="no"?>
<!DOCTYPE svg PUBLIC "-//W3C//DTD SVG 20010904//EN"
 "http://www.w3.org/TR/2001/REC-SVG-20010904/DTD/svg10.dtd">
<svg version="1.0" xmlns="http://www.w3.org/2000/svg"
 width="67.000000pt" height="96.000000pt" viewBox="0 0 67.000000 96.000000"
 preserveAspectRatio="xMidYMid meet">

<g transform="translate(0.000000,96.000000) scale(0.100000,-0.100000)"
fill="#000000" stroke="none">
<path d="M346 830 c-34 -11 -82 -54 -102 -92 -9 -17 -14 -58 -14 -108 l0 -80
-60 0 -60 0 0 -70 0 -70 60 0 60 0 0 -160 0 -161 83 3 82 3 3 158 3 157 43 0
c43 0 43 0 64 53 11 28 23 60 27 70 6 15 0 17 -64 17 l-72 0 3 73 3 72 53 3
52 3 0 70 0 69 -67 -1 c-38 0 -81 -5 -97 -9z"/>
</g>
</svg>
