<?xml version="1.0" standalone="no"?>
<!DOCTYPE svg PUBLIC "-//W3C//DTD SVG 20010904//EN"
 "http://www.w3.org/TR/2001/REC-SVG-20010904/DTD/svg10.dtd">
<svg version="1.0" xmlns="http://www.w3.org/2000/svg"
 width="84.000000pt" height="89.000000pt" viewBox="0 0 84.000000 89.000000"
 preserveAspectRatio="xMidYMid meet">

<g transform="translate(0.000000,89.000000) scale(0.100000,-0.100000)"
fill="#000000" stroke="none">
<path d="M104 752 c-51 -8 -74 -76 -38 -113 67 -67 173 11 119 88 -15 21 -45
31 -81 25z"/>
<path d="M484 541 c-23 -10 -47 -27 -53 -38 -9 -15 -10 -13 -11 15 l0 32 -65
0 -65 0 0 -205 0 -205 64 0 64 0 3 131 c4 129 4 131 32 155 34 29 76 31 108 5
23 -18 24 -26 27 -155 l4 -136 64 0 65 0 -3 164 c-3 148 -5 167 -24 193 -43
58 -138 78 -210 44z"/>
<path d="M50 345 l0 -205 70 0 70 0 0 205 0 205 -70 0 -70 0 0 -205z"/>
</g>
</svg>
