<?xml version="1.0" standalone="no"?>
<!DOCTYPE svg PUBLIC "-//W3C//DTD SVG 20010904//EN"
 "http://www.w3.org/TR/2001/REC-SVG-20010904/DTD/svg10.dtd">
<svg version="1.0" xmlns="http://www.w3.org/2000/svg"
 width="86.000000pt" height="84.000000pt" viewBox="0 0 86.000000 84.000000"
 preserveAspectRatio="xMidYMid meet">

<g transform="translate(0.000000,84.000000) scale(0.100000,-0.100000)"
fill="#000000" stroke="none">
<path d="M497 670 c-39 -31 -57 -71 -57 -130 l0 -50 -33 0 c-51 0 -146 53
-207 114 -58 59 -70 58 -70 -2 0 -37 21 -84 54 -121 20 -23 20 -24 1 -19 -11
3 -28 9 -37 13 -14 5 -18 2 -18 -13 0 -26 46 -81 79 -93 20 -8 23 -12 11 -19
-8 -6 -25 -10 -38 -10 -20 0 -21 -3 -12 -21 14 -25 84 -58 123 -59 67 0 -35
-54 -126 -66 l-52 -7 45 -21 c37 -17 65 -21 160 -21 105 0 120 3 172 28 75 37
159 128 188 204 12 32 24 87 27 123 4 52 11 71 32 93 l26 29 -40 -8 -39 -7 37
33 c21 18 35 35 33 38 -3 2 -24 -3 -47 -12 -39 -16 -43 -16 -60 0 -11 10 -42
19 -72 22 -42 3 -57 0 -80 -18z"/>
</g>
</svg>
